<?xml version="1.0" standalone="no"?>
<!DOCTYPE svg PUBLIC "-//W3C//DTD SVG 20010904//EN"
 "http://www.w3.org/TR/2001/REC-SVG-20010904/DTD/svg10.dtd">
<svg version="1.0" xmlns="http://www.w3.org/2000/svg"
 width="734.000000pt" height="290.000000pt" viewBox="0 0 734.000000 290.000000"
 preserveAspectRatio="xMidYMid meet">

<g transform="translate(0.000000,290.000000) scale(0.100000,-0.100000)"
fill="#000000" stroke="none">
<path d="M3550 2631 c-163 -35 -269 -192 -240 -354 28 -153 145 -247 309 -247
166 0 279 87 312 240 15 68 -3 164 -42 225 -31 49 -99 103 -155 122 -46 16
-141 23 -184 14z"/>
<path d="M1795 2481 c-98 -44 -159 -162 -136 -259 28 -110 104 -171 221 -180
61 -4 76 -1 125 22 61 31 97 70 121 137 27 76 2 181 -58 236 -65 61 -192 81
-273 44z"/>
<path d="M542 1870 c-153 -37 -289 -129 -355 -243 -92 -157 -66 -362 62 -485
93 -89 198 -131 469 -188 228 -47 294 -69 345 -114 41 -37 42 -39 42 -105 0
-65 -1 -67 -42 -105 -55 -52 -126 -72 -252 -72 -188 1 -357 51 -493 148 l-47
33 -44 -52 c-55 -66 -137 -174 -137 -181 0 -11 125 -89 203 -126 143 -69 246
-91 445 -97 114 -4 193 -1 235 7 212 41 353 133 424 278 37 75 38 78 38 191 0
154 -17 203 -102 289 -98 99 -192 135 -534 206 -252 52 -329 97 -329 190 0
117 142 187 345 171 132 -10 261 -57 348 -126 20 -17 41 -28 46 -25 5 3 48 56
97 117 l87 112 -23 19 c-92 75 -240 136 -394 163 -121 21 -338 18 -434 -5z"/>
<path d="M6321 1879 c-135 -26 -250 -87 -333 -176 -117 -127 -148 -304 -79
-456 27 -58 102 -136 172 -176 68 -39 207 -82 374 -116 288 -58 359 -90 386
-172 16 -49 3 -98 -37 -143 -56 -62 -109 -75 -294 -74 -142 0 -162 3 -240 28
-97 32 -141 53 -217 104 -63 42 -50 49 -158 -93 -59 -79 -72 -102 -62 -112 27
-27 184 -114 256 -142 43 -17 124 -40 182 -51 90 -19 126 -21 269 -17 185 6
230 16 358 77 64 31 100 56 149 106 88 90 116 151 121 270 9 190 -64 313 -239
404 -77 40 -182 70 -439 124 -134 29 -239 72 -262 109 -54 82 -5 185 106 224
67 24 235 23 326 -1 77 -20 172 -63 234 -105 l45 -31 87 111 c69 88 85 115 77
127 -33 53 -247 150 -393 178 -82 15 -316 17 -389 3z"/>
<path d="M2866 1865 c-190 -40 -366 -175 -442 -340 -57 -123 -57 -130 -62
-683 l-4 -512 161 0 160 0 3 493 3 492 28 60 c68 144 198 215 372 201 44 -3
89 -8 100 -11 18 -6 23 6 53 127 17 73 32 141 32 149 0 23 -32 29 -195 34 -99
3 -160 0 -209 -10z"/>
<path d="M1730 1100 c0 -412 0 -753 0 -757 0 -5 70 -9 155 -11 l155 -3 0 761
0 760 -155 0 -155 0 0 -750z"/>
<path d="M3466 1834 c-3 -9 -6 -351 -6 -760 l0 -744 165 0 165 0 0 760 0 760
-159 0 c-136 0 -160 -2 -165 -16z"/>
<path d="M4099 1703 c-5 -955 -8 -919 68 -1073 50 -102 162 -214 265 -264 129
-64 209 -80 403 -80 149 -1 180 2 249 22 126 36 230 96 311 177 80 80 126 159
157 272 20 74 22 105 26 552 2 261 1 489 -3 507 l-6 34 -154 0 -154 0 -4 -492
c-3 -541 -2 -530 -66 -614 -80 -106 -189 -155 -343 -156 -144 -1 -232 29 -315
105 -115 106 -123 152 -123 718 l0 439 -155 0 -155 0 -1 -147z"/>
</g>
</svg>
