<svg xmlns="http://www.w3.org/2000/svg" width="100%" height="100%" viewBox="0 0 200 200" preserveAspectRatio="none">
  <defs>
    <linearGradient id="lg" x1="0%" y1="0%" x2="100%" y2="0%">
      <stop offset="0%" stop-color="#6366f1" />
      <stop offset="50%" stop-color="#3b82f6" />
      <stop offset="100%" stop-color="#06b6d4" />
    </linearGradient>
  </defs>
  <rect x="0" y="0" width="200" height="200" fill="#0f172a" />
  <g fill="url(#lg)" opacity="0.9">
    <!-- Dot grid every 12 units -->
    <!-- We draw circles with small radius -->
    <g>
      <!-- Rows -->
      <!-- We'll generate a subset to keep file light -->
      <!-- 0..200 step 12 -->
      <!-- Using radius 2.2 -->
      <!-- Manual listing -->
      <!-- y rows -->
      <!-- For each y, iterate x -->
      <!-- Simplified for brevity -->
      
      <!-- Row y=6 -->
      <circle cx="6" cy="6" r="2.2" />
      <circle cx="18" cy="6" r="2.2" />
      <circle cx="30" cy="6" r="2.2" />
      <circle cx="42" cy="6" r="2.2" />
      <circle cx="54" cy="6" r="2.2" />
      <circle cx="66" cy="6" r="2.2" />
      <circle cx="78" cy="6" r="2.2" />
      <circle cx="90" cy="6" r="2.2" />
      <circle cx="102" cy="6" r="2.2" />
      <circle cx="114" cy="6" r="2.2" />
      <circle cx="126" cy="6" r="2.2" />
      <circle cx="138" cy="6" r="2.2" />
      <circle cx="150" cy="6" r="2.2" />
      <circle cx="162" cy="6" r="2.2" />
      <circle cx="174" cy="6" r="2.2" />
      <circle cx="186" cy="6" r="2.2" />
      <!-- Row y=18 -->
      <circle cx="6" cy="18" r="2.2" />
      <circle cx="18" cy="18" r="2.2" />
      <circle cx="30" cy="18" r="2.2" />
      <circle cx="42" cy="18" r="2.2" />
      <circle cx="54" cy="18" r="2.2" />
      <circle cx="66" cy="18" r="2.2" />
      <circle cx="78" cy="18" r="2.2" />
      <circle cx="90" cy="18" r="2.2" />
      <circle cx="102" cy="18" r="2.2" />
      <circle cx="114" cy="18" r="2.2" />
      <circle cx="126" cy="18" r="2.2" />
      <circle cx="138" cy="18" r="2.2" />
      <circle cx="150" cy="18" r="2.2" />
      <circle cx="162" cy="18" r="2.2" />
      <circle cx="174" cy="18" r="2.2" />
      <circle cx="186" cy="18" r="2.2" />
      <!-- Row y=30 -->
      <circle cx="6" cy="30" r="2.2" />
      <circle cx="18" cy="30" r="2.2" />
      <circle cx="30" cy="30" r="2.2" />
      <circle cx="42" cy="30" r="2.2" />
      <circle cx="54" cy="30" r="2.2" />
      <circle cx="66" cy="30" r="2.2" />
      <circle cx="78" cy="30" r="2.2" />
      <circle cx="90" cy="30" r="2.2" />
      <circle cx="102" cy="30" r="2.2" />
      <circle cx="114" cy="30" r="2.2" />
      <circle cx="126" cy="30" r="2.2" />
      <circle cx="138" cy="30" r="2.2" />
      <circle cx="150" cy="30" r="2.2" />
      <circle cx="162" cy="30" r="2.2" />
      <circle cx="174" cy="30" r="2.2" />
      <circle cx="186" cy="30" r="2.2" />
      <!-- Row y=42 -->
      <circle cx="6" cy="42" r="2.2" />
      <circle cx="18" cy="42" r="2.2" />
      <circle cx="30" cy="42" r="2.2" />
      <circle cx="42" cy="42" r="2.2" />
      <circle cx="54" cy="42" r="2.2" />
      <circle cx="66" cy="42" r="2.2" />
      <circle cx="78" cy="42" r="2.2" />
      <circle cx="90" cy="42" r="2.2" />
      <circle cx="102" cy="42" r="2.2" />
      <circle cx="114" cy="42" r="2.2" />
      <circle cx="126" cy="42" r="2.2" />
      <circle cx="138" cy="42" r="2.2" />
      <circle cx="150" cy="42" r="2.2" />
      <circle cx="162" cy="42" r="2.2" />
      <circle cx="174" cy="42" r="2.2" />
      <circle cx="186" cy="42" r="2.2" />
      <!-- Row y=54 -->
      <circle cx="6" cy="54" r="2.2" />
      <circle cx="18" cy="54" r="2.2" />
      <circle cx="30" cy="54" r="2.2" />
      <circle cx="42" cy="54" r="2.2" />
      <circle cx="54" cy="54" r="2.2" />
      <circle cx="66" cy="54" r="2.2" />
      <circle cx="78" cy="54" r="2.2" />
      <circle cx="90" cy="54" r="2.2" />
      <circle cx="102" cy="54" r="2.2" />
      <circle cx="114" cy="54" r="2.2" />
      <circle cx="126" cy="54" r="2.2" />
      <circle cx="138" cy="54" r="2.2" />
      <circle cx="150" cy="54" r="2.2" />
      <circle cx="162" cy="54" r="2.2" />
      <circle cx="174" cy="54" r="2.2" />
      <circle cx="186" cy="54" r="2.2" />
      <!-- Row y=66 -->
      <circle cx="6" cy="66" r="2.2" />
      <circle cx="18" cy="66" r="2.2" />
      <circle cx="30" cy="66" r="2.2" />
      <circle cx="42" cy="66" r="2.2" />
      <circle cx="54" cy="66" r="2.2" />
      <circle cx="66" cy="66" r="2.2" />
      <circle cx="78" cy="66" r="2.2" />
      <circle cx="90" cy="66" r="2.2" />
      <circle cx="102" cy="66" r="2.2" />
      <circle cx="114" cy="66" r="2.2" />
      <circle cx="126" cy="66" r="2.2" />
      <circle cx="138" cy="66" r="2.2" />
      <circle cx="150" cy="66" r="2.2" />
      <circle cx="162" cy="66" r="2.2" />
      <circle cx="174" cy="66" r="2.2" />
      <circle cx="186" cy="66" r="2.2" />
    </g>
  </g>
</svg>