<svg xmlns="http://www.w3.org/2000/svg" width="100%" height="100%" viewBox="0 0 200 200" preserveAspectRatio="none">
  <defs>
    <linearGradient id="g" x1="0%" y1="0%" x2="100%" y2="0%">
      <stop offset="0%" stop-color="#4f46e5"/>
      <stop offset="50%" stop-color="#0ea5e9"/>
      <stop offset="100%" stop-color="#14b8a6"/>
    </linearGradient>
  </defs>
  <rect x="0" y="0" width="200" height="200" fill="#0f172a"/>
  <g stroke="url(#g)" stroke-width="0.6" stroke-linecap="square" opacity="0.9">
    <!-- Vertical lines -->
    <g>
      <!-- lines every 10 units -->
      <!-- Generated manually for clarity -->
      <line x1="0" y1="0" x2="0" y2="200"/>
      <line x1="10" y1="0" x2="10" y2="200"/>
      <line x1="20" y1="0" x2="20" y2="200"/>
      <line x1="30" y1="0" x2="30" y2="200"/>
      <line x1="40" y1="0" x2="40" y2="200"/>
      <line x1="50" y1="0" x2="50" y2="200"/>
      <line x1="60" y1="0" x2="60" y2="200"/>
      <line x1="70" y1="0" x2="70" y2="200"/>
      <line x1="80" y1="0" x2="80" y2="200"/>
      <line x1="90" y1="0" x2="90" y2="200"/>
      <line x1="100" y1="0" x2="100" y2="200"/>
      <line x1="110" y1="0" x2="110" y2="200"/>
      <line x1="120" y1="0" x2="120" y2="200"/>
      <line x1="130" y1="0" x2="130" y2="200"/>
      <line x1="140" y1="0" x2="140" y2="200"/>
      <line x1="150" y1="0" x2="150" y2="200"/>
      <line x1="160" y1="0" x2="160" y2="200"/>
      <line x1="170" y1="0" x2="170" y2="200"/>
      <line x1="180" y1="0" x2="180" y2="200"/>
      <line x1="190" y1="0" x2="190" y2="200"/>
      <line x1="200" y1="0" x2="200" y2="200"/>
    </g>
    <!-- Horizontal lines -->
    <g>
      <line x1="0" y1="0" x2="200" y2="0"/>
      <line x1="0" y1="10" x2="200" y2="10"/>
      <line x1="0" y1="20" x2="200" y2="20"/>
      <line x1="0" y1="30" x2="200" y2="30"/>
      <line x1="0" y1="40" x2="200" y2="40"/>
      <line x1="0" y1="50" x2="200" y2="50"/>
      <line x1="0" y1="60" x2="200" y2="60"/>
      <line x1="0" y1="70" x2="200" y2="70"/>
      <line x1="0" y1="80" x2="200" y2="80"/>
      <line x1="0" y1="90" x2="200" y2="90"/>
      <line x1="0" y1="100" x2="200" y2="100"/>
      <line x1="0" y1="110" x2="200" y2="110"/>
      <line x1="0" y1="120" x2="200" y2="120"/>
      <line x1="0" y1="130" x2="200" y2="130"/>
      <line x1="0" y1="140" x2="200" y2="140"/>
      <line x1="0" y1="150" x2="200" y2="150"/>
      <line x1="0" y1="160" x2="200" y2="160"/>
      <line x1="0" y1="170" x2="200" y2="170"/>
      <line x1="0" y1="180" x2="200" y2="180"/>
      <line x1="0" y1="190" x2="200" y2="190"/>
      <line x1="0" y1="200" x2="200" y2="200"/>
    </g>
  </g>
</svg>